<svg width="22" height="68" viewBox="0 0 22 68" fill="none" xmlns="http://www.w3.org/2000/svg">
<g clip-path="url(#clip0_2221_16534)">
<path d="M11 5C16.5228 5 21 9.47715 21 15C21 20.5228 16.5228 25 11 25C5.47715 25 1 20.5228 1 15C1 9.47715 5.47715 5 11 5ZM11 11C8.79086 11 7 12.7909 7 15C7 17.2091 8.79086 19 11 19C13.2091 19 15 17.2091 15 15C15 12.7909 13.2091 11 11 11Z" fill="#D9D9D9"/>
<path d="M20.9 15C20.9 9.53238 16.4676 5.1 11 5.1C5.53238 5.1 1.1 9.53238 1.1 15C1.1 20.4676 5.53238 24.9 11 24.9V26C4.92487 26 0 21.0751 0 15C0 8.92487 4.92487 4 11 4C17.0751 4 22 8.92487 22 15C22 21.0751 17.0751 26 11 26V24.9C16.4676 24.9 20.9 20.4676 20.9 15Z" fill="#D9D9D9"/>
</g>
<defs>
<clipPath id="clip0_2221_16534">
<rect width="22" height="22" fill="white" transform="translate(0 4)"/>
</clipPath>
</defs>
</svg>
