<svg width="22" height="522" viewBox="0 0 22 522" fill="none" xmlns="http://www.w3.org/2000/svg">
<g clip-path="url(#clip0_2221_16410)">
<path d="M11 8C14.866 8 18 11.134 18 15C18 18.866 14.866 22 11 22C7.13401 22 4 18.866 4 15C4 11.134 7.13401 8 11 8ZM11 12.2C9.4536 12.2 8.2 13.4536 8.2 15C8.2 16.5464 9.4536 17.8 11 17.8C12.5464 17.8 13.8 16.5464 13.8 15C13.8 13.4536 12.5464 12.2 11 12.2Z" fill="#008080"/>
<path d="M20.9 15C20.9 9.53238 16.4676 5.1 11 5.1C5.53238 5.1 1.1 9.53238 1.1 15C1.1 20.4676 5.53238 24.9 11 24.9V26C4.92487 26 0 21.0751 0 15C0 8.92487 4.92487 4 11 4C17.0751 4 22 8.92487 22 15C22 21.0751 17.0751 26 11 26V24.9C16.4676 24.9 20.9 20.4676 20.9 15Z" fill="#008080"/>
</g>
<path d="M12 522L10 522L9.99998 26L12 26L12 522Z" fill="url(#paint0_linear_2221_16410)"/>
<defs>
<linearGradient id="paint0_linear_2221_16410" x1="11" y1="26" x2="11" y2="522" gradientUnits="userSpaceOnUse">
<stop stop-color="#008080"/>
<stop offset="1" stop-color="#D9D9D9"/>
</linearGradient>
<clipPath id="clip0_2221_16410">
<rect width="22" height="22" fill="white" transform="translate(0 4)"/>
</clipPath>
</defs>
</svg>
