<svg width="16" height="16" viewBox="0 0 16 16" fill="none" xmlns="http://www.w3.org/2000/svg">
<path d="M14.6566 7.16875L14.1941 2.28437C14.1707 2.03125 13.9691 1.83125 13.716 1.80625L8.83163 1.34375H8.82538C8.77538 1.34375 8.73632 1.35938 8.70663 1.38906L1.38944 8.70625C1.37496 8.72071 1.36347 8.73788 1.35563 8.75678C1.34779 8.77568 1.34375 8.79594 1.34375 8.81641C1.34375 8.83687 1.34779 8.85713 1.35563 8.87603C1.36347 8.89494 1.37496 8.91211 1.38944 8.92656L7.07382 14.6109C7.10351 14.6406 7.14257 14.6562 7.18476 14.6562C7.22694 14.6562 7.26601 14.6406 7.29569 14.6109L14.6129 7.29375C14.6441 7.26094 14.6598 7.21562 14.6566 7.16875ZM7.18319 13.0422L2.95819 8.81719L9.20351 2.57188L13.0629 2.9375L13.4285 6.79688L7.18319 13.0422ZM10.6254 4C9.86757 4 9.25038 4.61719 9.25038 5.375C9.25038 6.13281 9.86757 6.75 10.6254 6.75C11.3832 6.75 12.0004 6.13281 12.0004 5.375C12.0004 4.61719 11.3832 4 10.6254 4ZM10.6254 5.875C10.3488 5.875 10.1254 5.65156 10.1254 5.375C10.1254 5.09844 10.3488 4.875 10.6254 4.875C10.9019 4.875 11.1254 5.09844 11.1254 5.375C11.1254 5.65156 10.9019 5.875 10.6254 5.875Z" fill="#001D3D"/>
</svg>
