<svg width="16" height="16" viewBox="0 0 16 16" fill="none" xmlns="http://www.w3.org/2000/svg">
<path d="M13.6972 3.74159C13.6894 3.72753 13.6785 3.71346 13.666 3.70253C13.5879 3.6244 13.4613 3.6244 13.3832 3.70253L10.691 6.39471L9.63004 5.33378L12.3238 2.64003C12.3363 2.62753 12.3457 2.61503 12.355 2.60096C12.4113 2.50565 12.38 2.38378 12.2847 2.32753C10.7504 1.42128 8.74098 1.62909 7.42067 2.94784C6.37379 3.99471 6.02692 5.47909 6.3816 6.81346L1.80348 11.3916C1.7566 11.4385 1.75973 11.515 1.80817 11.5635L4.45973 14.215C4.50817 14.2635 4.58629 14.2666 4.6316 14.2197L9.20817 9.64315C10.5441 9.9994 12.0285 9.65409 13.0769 8.60565C14.3957 7.28534 14.6035 5.27596 13.6972 3.74159ZM12.2816 7.80878C11.3738 8.71659 10.0113 8.89159 8.92848 8.33378L8.79098 8.47128L8.78942 8.46971L4.50817 12.7525L3.27067 11.515L6.86598 7.91971C6.86598 7.91971 6.86598 7.92128 6.86754 7.92128L7.69254 7.09628C7.13473 6.01346 7.30973 4.65096 8.21754 3.74315C8.51033 3.4501 8.86292 3.22371 9.25124 3.07944C9.63955 2.93517 10.0544 2.87642 10.4675 2.90721L8.39098 4.98221C8.29718 5.07611 8.2445 5.2034 8.2445 5.33612C8.2445 5.46884 8.29718 5.59613 8.39098 5.69003L10.3363 7.63534C10.4302 7.72913 10.5575 7.78181 10.6902 7.78181C10.8229 7.78181 10.9502 7.72913 11.0441 7.63534L13.1191 5.56034C13.1769 6.36971 12.8941 7.19784 12.2816 7.80878Z" fill="#001D3D"/>
</svg>
