<svg width="16" height="16" viewBox="0 0 16 16" fill="none" xmlns="http://www.w3.org/2000/svg">
<path d="M11.625 4.25L10.375 4.25C10.3063 4.25 10.25 4.30625 10.25 4.375L10.25 11.625C10.25 11.6937 10.3062 11.75 10.375 11.75L11.625 11.75C11.6937 11.75 11.75 11.6937 11.75 11.625L11.75 4.375C11.75 4.30625 11.6938 4.25 11.625 4.25ZM8.625 8.625L7.375 8.625C7.30625 8.625 7.25 8.68125 7.25 8.75L7.25 11.625C7.25 11.6937 7.30625 11.75 7.375 11.75L8.625 11.75C8.69375 11.75 8.75 11.6937 8.75 11.625L8.75 8.75C8.75 8.68125 8.69375 8.625 8.625 8.625ZM5.625 7.5L4.375 7.5C4.30625 7.5 4.25 7.55625 4.25 7.625L4.25 11.625C4.25 11.6937 4.30625 11.75 4.375 11.75L5.625 11.75C5.69375 11.75 5.75 11.6937 5.75 11.625L5.75 7.625C5.75 7.55625 5.69375 7.5 5.625 7.5ZM2.25 14.25L13.75 14.25C14.0266 14.25 14.25 14.0266 14.25 13.75L14.25 2.25C14.25 1.97344 14.0266 1.75 13.75 1.75L2.25 1.75C1.97344 1.75 1.75 1.97344 1.75 2.25L1.75 13.75C1.75 14.0266 1.97344 14.25 2.25 14.25ZM2.875 2.875L13.125 2.875L13.125 13.125L2.875 13.125L2.875 2.875Z" fill="#008080"/>
</svg>
