<svg width="16" height="16" viewBox="0 0 16 16" fill="none" xmlns="http://www.w3.org/2000/svg">
<path d="M11.313 3.41021V2.2024C11.313 2.09771 11.1927 2.0399 11.1114 2.10396L4.0677 7.60553C4.00785 7.65207 3.95943 7.71166 3.92612 7.77977C3.8928 7.84787 3.87549 7.92268 3.87549 7.9985C3.87549 8.07431 3.8928 8.14912 3.92612 8.21722C3.95943 8.28533 4.00785 8.34492 4.0677 8.39146L11.1114 13.893C11.1943 13.9571 11.313 13.8993 11.313 13.7946V12.5868C11.313 12.5102 11.2771 12.4368 11.2177 12.3899L5.5927 7.99928L11.2177 3.60709C11.2771 3.56021 11.313 3.48678 11.313 3.41021Z" fill="black" fill-opacity="0.88"/>
</svg>
