<svg width="16" height="16" viewBox="0 0 16 16" fill="none" xmlns="http://www.w3.org/2000/svg">
<path d="M8.37593 4.26563H7.62437C7.55562 4.26563 7.49937 4.32188 7.49937 4.39063V8.69219C7.49937 8.73282 7.51812 8.77032 7.55093 8.79375L10.1337 10.6797C10.19 10.7203 10.2681 10.7094 10.3087 10.6531L10.7556 10.0438C10.7978 9.98594 10.7853 9.90781 10.7291 9.86875L8.50093 8.25782V4.39063C8.50093 4.32188 8.44468 4.26563 8.37593 4.26563ZM11.8103 5.44063L14.2603 6.03906C14.3384 6.05782 14.415 5.99844 14.415 5.91875L14.4275 3.39531C14.4275 3.29063 14.3072 3.23125 14.2259 3.29688L11.7634 5.22031C11.7448 5.23471 11.7307 5.25407 11.7226 5.27616C11.7145 5.29825 11.7128 5.32218 11.7177 5.3452C11.7226 5.36821 11.7338 5.38938 11.7502 5.40626C11.7666 5.42314 11.7874 5.43505 11.8103 5.44063ZM14.4306 10.1453L13.5447 9.84063C13.5138 9.83004 13.48 9.83196 13.4505 9.84597C13.421 9.85999 13.3982 9.88499 13.3869 9.91563C13.3572 9.99531 13.3259 10.0734 13.2931 10.1516C13.015 10.8094 12.6166 11.4016 12.1072 11.9094C11.6035 12.4147 11.0065 12.8174 10.3494 13.0953C9.66863 13.3831 8.93689 13.5309 8.19781 13.5297C7.45093 13.5297 6.7275 13.3844 6.04625 13.0953C5.38912 12.8174 4.79215 12.4147 4.28843 11.9094C3.78062 11.4016 3.38218 10.8094 3.1025 10.1516C2.81627 9.47045 2.66963 8.73882 2.67125 8C2.67125 7.25313 2.81656 6.52813 3.10562 5.84688C3.38375 5.18906 3.78218 4.59688 4.29156 4.08906C4.79528 3.58378 5.39224 3.18103 6.04937 2.90313C6.7275 2.61406 7.4525 2.46875 8.19937 2.46875C8.94625 2.46875 9.66968 2.61406 10.3509 2.90313C11.0081 3.18103 11.605 3.58378 12.1087 4.08906C12.2681 4.25 12.4181 4.41719 12.5556 4.59375L13.49 3.8625C12.2603 2.29063 10.3462 1.27969 8.19625 1.28125C4.4525 1.28281 1.44625 4.32344 1.48375 8.06875C1.52125 11.7484 4.51343 14.7188 8.19937 14.7188C11.0978 14.7188 13.5666 12.8813 14.5072 10.3078C14.5306 10.2422 14.4962 10.1688 14.4306 10.1453Z" fill="#001D3D"/>
</svg>
