<svg width="18" height="18" viewBox="0 0 18 18" fill="none" xmlns="http://www.w3.org/2000/svg">
<path d="M9.37245 8.65371L4.88476 2.91973C4.83202 2.85117 4.74941 2.8125 4.66327 2.8125H3.30448C3.18671 2.8125 3.12167 2.94785 3.19374 3.03926L7.85898 9L3.19374 14.9607C3.17751 14.9815 3.16744 15.0063 3.16468 15.0325C3.16192 15.0587 3.16658 15.0851 3.17814 15.1088C3.18969 15.1324 3.20766 15.1524 3.23001 15.1663C3.25235 15.1802 3.27816 15.1876 3.30448 15.1875H4.66327C4.74941 15.1875 4.83202 15.1471 4.88476 15.0803L9.37245 9.34805C9.53241 9.14238 9.53241 8.85762 9.37245 8.65371ZM14.7162 8.65371L10.2285 2.91973C10.1758 2.85117 10.0932 2.8125 10.007 2.8125H8.64823C8.53046 2.8125 8.46542 2.94785 8.53749 3.03926L13.2027 9L8.53749 14.9607C8.52126 14.9815 8.51119 15.0063 8.50843 15.0325C8.50567 15.0587 8.51033 15.0851 8.52189 15.1088C8.53344 15.1324 8.55141 15.1524 8.57376 15.1663C8.5961 15.1802 8.62191 15.1876 8.64823 15.1875H10.007C10.0932 15.1875 10.1758 15.1471 10.2285 15.0803L14.7162 9.34805C14.8762 9.14238 14.8762 8.85762 14.7162 8.65371Z" fill="#001D3D"/>
</svg>
