<svg width="24" height="24" viewBox="0 0 24 24" fill="none" xmlns="http://www.w3.org/2000/svg">
<path d="M21.6758 14.6635L20.1406 13.351C20.2133 12.9057 20.2508 12.451 20.2508 11.9963C20.2508 11.5416 20.2133 11.0869 20.1406 10.6416L21.6758 9.3291C21.7916 9.22998 21.8745 9.09795 21.9134 8.95058C21.9523 8.80321 21.9455 8.64748 21.8938 8.5041L21.8727 8.44316C21.45 7.26198 20.8172 6.167 20.0047 5.21113L19.9625 5.16191C19.8639 5.04602 19.7326 4.96271 19.5857 4.92296C19.4389 4.88322 19.2834 4.8889 19.1398 4.93926L17.2344 5.6166C16.5313 5.04004 15.7461 4.58535 14.8977 4.2666L14.5297 2.27441C14.5019 2.12451 14.4292 1.98661 14.3212 1.87902C14.2132 1.77143 14.075 1.69925 13.925 1.67207L13.8617 1.66035C12.6406 1.44004 11.3563 1.44004 10.1352 1.66035L10.0719 1.67207C9.92187 1.69925 9.78368 1.77143 9.67568 1.87902C9.56767 1.98661 9.49495 2.12451 9.46719 2.27441L9.09688 4.27598C8.25521 4.59479 7.47141 5.04924 6.77657 5.62129L4.85704 4.93926C4.71352 4.8885 4.55795 4.88261 4.41101 4.92238C4.26407 4.96215 4.1327 5.0457 4.03438 5.16191L3.99219 5.21113C3.18066 6.16767 2.54792 7.26247 2.12422 8.44316L2.10313 8.5041C1.99766 8.79707 2.08438 9.1252 2.3211 9.3291L3.875 10.6557C3.80235 11.0963 3.76719 11.5463 3.76719 11.9939C3.76719 12.4439 3.80235 12.8939 3.875 13.3322L2.3211 14.6588C2.20531 14.7579 2.12243 14.8899 2.0835 15.0373C2.04456 15.1847 2.05141 15.3404 2.10313 15.4838L2.12422 15.5447C2.54844 16.726 3.17657 17.8158 3.99219 18.7768L4.03438 18.826C4.13294 18.9419 4.26431 19.0252 4.41117 19.0649C4.55802 19.1047 4.71347 19.099 4.85704 19.0486L6.77657 18.3666C7.47501 18.9408 8.25547 19.3955 9.09688 19.7119L9.46719 21.7135C9.49495 21.8634 9.56767 22.0013 9.67568 22.1089C9.78368 22.2165 9.92187 22.2886 10.0719 22.3158L10.1352 22.3275C11.3675 22.549 12.6294 22.549 13.8617 22.3275L13.925 22.3158C14.075 22.2886 14.2132 22.2165 14.3212 22.1089C14.4292 22.0013 14.5019 21.8634 14.5297 21.7135L14.8977 19.7213C15.7458 19.4034 16.5353 18.9472 17.2344 18.3713L19.1398 19.0486C19.2834 19.0994 19.4389 19.1053 19.5859 19.0655C19.7328 19.0257 19.8642 18.9422 19.9625 18.826L20.0047 18.7768C20.8203 17.8135 21.4484 16.726 21.8727 15.5447L21.8938 15.4838C21.9992 15.1955 21.9125 14.8674 21.6758 14.6635ZM18.4766 10.9182C18.5352 11.2721 18.5656 11.6354 18.5656 11.9986C18.5656 12.3619 18.5352 12.7252 18.4766 13.0791L18.3219 14.0189L20.0727 15.5166C19.8072 16.1281 19.4722 16.7069 19.0742 17.2416L16.8992 16.4705L16.1633 17.0752C15.6031 17.5346 14.9797 17.8955 14.3047 18.1486L13.4117 18.4838L12.9922 20.7572C12.3302 20.8322 11.6619 20.8322 11 20.7572L10.5805 18.4791L9.69454 18.1393C9.02657 17.8861 8.40547 17.5252 7.85 17.0682L7.11407 16.4611L4.925 17.2393C4.52657 16.7025 4.19375 16.1236 3.92657 15.5143L5.6961 14.0025L5.54376 13.065C5.4875 12.7158 5.45704 12.3549 5.45704 11.9986C5.45704 11.64 5.48516 11.2814 5.54376 10.9322L5.6961 9.99473L3.92657 8.48301C4.19141 7.87129 4.52657 7.29473 4.925 6.75801L7.11407 7.53613L7.85 6.9291C8.40547 6.47207 9.02657 6.11113 9.69454 5.85801L10.5828 5.52285L11.0023 3.24473C11.6609 3.16973 12.3336 3.16973 12.9945 3.24473L13.4141 5.51816L14.307 5.85332C14.9797 6.10645 15.6055 6.46738 16.1656 6.92676L16.9016 7.53145L19.0766 6.76035C19.475 7.29707 19.8078 7.87598 20.075 8.48535L18.3242 9.98301L18.4766 10.9182ZM12.0008 7.63926C9.72266 7.63926 7.87579 9.48613 7.87579 11.7643C7.87579 14.0424 9.72266 15.8893 12.0008 15.8893C14.2789 15.8893 16.1258 14.0424 16.1258 11.7643C16.1258 9.48613 14.2789 7.63926 12.0008 7.63926ZM13.857 13.6205C13.6136 13.8647 13.3242 14.0583 13.0057 14.1902C12.6871 14.3222 12.3456 14.3898 12.0008 14.3893C11.3 14.3893 10.6414 14.115 10.1445 13.6205C9.90037 13.377 9.70676 13.0877 9.57482 12.7691C9.44289 12.4506 9.37525 12.1091 9.37579 11.7643C9.37579 11.0635 9.65 10.4049 10.1445 9.90801C10.6414 9.41113 11.3 9.13926 12.0008 9.13926C12.7016 9.13926 13.3602 9.41113 13.857 9.90801C14.1012 10.1515 14.2948 10.4408 14.4267 10.7594C14.5587 11.0779 14.6263 11.4195 14.6258 11.7643C14.6258 12.465 14.3516 13.1236 13.857 13.6205Z" fill="black" fill-opacity="0.45"/>
</svg>
