<svg width="16" height="16" viewBox="0 0 16 16" fill="none" xmlns="http://www.w3.org/2000/svg">
<path d="M13.9239 0.101562H2.0761C0.929503 0.101562 0 1.02515 0 2.16445V13.9369C0 15.0762 0.929503 15.9998 2.0761 15.9998H13.9239C15.0705 15.9998 16 15.0762 16 13.9369V2.16445C16 1.02515 15.0705 0.101562 13.9239 0.101562Z" fill="#405D72"/>
<path d="M2.32227 0V13.13C2.32227 13.2697 2.3781 13.4036 2.47749 13.5024C2.57688 13.6011 2.71168 13.6566 2.85224 13.6566H8.3428C8.48336 13.6566 8.61816 13.6011 8.71755 13.5024C8.81694 13.4036 8.87278 13.2697 8.87278 13.13V3.00445C8.87278 2.71482 8.67916 2.61617 8.44244 2.78504L4.22771 5.79546C3.99099 5.96432 3.79737 6.33962 3.79737 6.62925V11.6524C3.79737 11.792 3.85321 11.926 3.9526 12.0247C4.05199 12.1235 4.18679 12.179 4.32734 12.179H12.766C12.9065 12.179 13.0413 12.1235 13.1407 12.0247C13.2401 11.926 13.296 11.792 13.296 11.6524V6.06438C13.296 5.92471 13.2401 5.79077 13.1407 5.69201C13.0413 5.59325 12.9065 5.53777 12.766 5.53777H10.8779C10.7373 5.53777 10.6025 5.59325 10.5031 5.69201C10.4037 5.79077 10.3479 5.92471 10.3479 6.06438V13.1595C10.3479 13.2992 10.4037 13.4331 10.5031 13.5319C10.6025 13.6306 10.7373 13.6861 10.8779 13.6861H15.9752" stroke="white" stroke-miterlimit="10"/>
<mask id="path-3-inside-1_0_71" fill="white">
<path d="M13.2807 1.05566C13.2807 1.05566 13.4075 2.17733 13.5616 2.3318C13.7156 2.48627 14.4035 2.62389 14.4035 2.62389C14.4035 2.62389 13.7227 2.75203 13.5662 2.90756C13.4097 3.06308 13.2807 4.21494 13.2807 4.21494C13.2807 4.21494 13.1577 3.04869 12.998 2.89141C12.8383 2.73413 12.1582 2.62389 12.1582 2.62389C12.1582 2.62389 12.8475 2.50628 13.0062 2.34971C13.1648 2.19313 13.2807 1.05566 13.2807 1.05566Z"/>
</mask>
<path d="M13.2807 1.05566C13.2807 1.05566 13.4075 2.17733 13.5616 2.3318C13.7156 2.48627 14.4035 2.62389 14.4035 2.62389C14.4035 2.62389 13.7227 2.75203 13.5662 2.90756C13.4097 3.06308 13.2807 4.21494 13.2807 4.21494C13.2807 4.21494 13.1577 3.04869 12.998 2.89141C12.8383 2.73413 12.1582 2.62389 12.1582 2.62389C12.1582 2.62389 12.8475 2.50628 13.0062 2.34971C13.1648 2.19313 13.2807 1.05566 13.2807 1.05566Z" fill="#7263A8"/>
<path d="M13.2807 1.05566L14.2744 0.943297L12.2858 0.954305L13.2807 1.05566ZM14.4035 2.62389L14.5885 3.60664L14.5997 1.64332L14.4035 2.62389ZM13.2807 4.21494L12.2862 4.31979L14.2745 4.3262L13.2807 4.21494ZM12.1582 2.62389L11.99 1.63814L11.9982 3.61101L12.1582 2.62389ZM13.2807 1.05566C12.287 1.16803 12.287 1.16809 12.287 1.16816C12.287 1.16819 12.2871 1.16826 12.2871 1.16832C12.2871 1.16843 12.2871 1.16856 12.2871 1.16871C12.2871 1.169 12.2872 1.16936 12.2872 1.16979C12.2873 1.17065 12.2875 1.17178 12.2876 1.17318C12.2879 1.17596 12.2884 1.1798 12.2889 1.18463C12.2901 1.19428 12.2917 1.2079 12.2938 1.22497C12.2979 1.25907 12.3039 1.30717 12.3116 1.3651C12.3269 1.48006 12.3494 1.63782 12.3775 1.80344C12.405 1.96479 12.4411 2.15343 12.4859 2.32291C12.5081 2.40652 12.5376 2.50627 12.577 2.60453C12.6037 2.67109 12.6832 2.86717 12.8535 3.03794L13.5616 2.3318L14.2697 1.62567C14.3474 1.70367 14.3894 1.7747 14.4047 1.80188C14.4229 1.83429 14.4319 1.85651 14.4336 1.86071C14.4365 1.86806 14.4309 1.85484 14.4195 1.81157C14.3972 1.72729 14.3727 1.60655 14.3492 1.46817C14.3264 1.33406 14.3075 1.20175 14.2942 1.10158C14.2876 1.05193 14.2825 1.0112 14.2791 0.983358C14.2774 0.969456 14.2762 0.958827 14.2754 0.951971C14.275 0.948544 14.2747 0.946066 14.2745 0.944598C14.2744 0.943864 14.2744 0.943383 14.2743 0.943164C14.2743 0.943054 14.2743 0.94301 14.2743 0.943032C14.2743 0.943043 14.2743 0.94307 14.2743 0.943114C14.2743 0.943136 14.2743 0.943182 14.2743 0.943193C14.2744 0.943243 14.2744 0.943297 13.2807 1.05566ZM13.5616 2.3318L12.8535 3.03794C13.0491 3.23408 13.2932 3.33351 13.3852 3.37048C13.5187 3.42411 13.6576 3.46696 13.7699 3.49852C13.8858 3.53107 13.9932 3.55707 14.0705 3.57476C14.1096 3.58371 14.1422 3.5908 14.1656 3.5958C14.1774 3.5983 14.187 3.60029 14.194 3.60174C14.1975 3.60247 14.2004 3.60306 14.2027 3.60352C14.2038 3.60374 14.2047 3.60394 14.2055 3.60409C14.2059 3.60417 14.2063 3.60424 14.2066 3.6043C14.2067 3.60434 14.2069 3.60436 14.207 3.60439C14.2071 3.6044 14.2072 3.60442 14.2072 3.60443C14.2073 3.60445 14.2074 3.60446 14.4035 2.62389C14.5997 1.64332 14.5998 1.64334 14.5999 1.64335C14.5999 1.64336 14.6 1.64337 14.6 1.64338C14.6001 1.6434 14.6002 1.64342 14.6002 1.64343C14.6004 1.64346 14.6005 1.64348 14.6005 1.64349C14.6007 1.64352 14.6006 1.64351 14.6004 1.64347C14.6001 1.6434 14.5991 1.6432 14.5975 1.64288C14.5944 1.64224 14.5891 1.64112 14.5817 1.63956C14.567 1.63642 14.5446 1.63156 14.5168 1.62519C14.4603 1.61225 14.3861 1.59419 14.3107 1.57303C14.2318 1.55087 14.1699 1.53036 14.131 1.51474C14.1118 1.50701 14.1122 1.50602 14.1258 1.51351C14.1311 1.51648 14.1947 1.55055 14.2697 1.62567L13.5616 2.3318ZM14.4035 2.62389C14.2186 1.64115 14.2185 1.64116 14.2184 1.64118C14.2184 1.64119 14.2183 1.6412 14.2182 1.64122C14.2181 1.64124 14.2179 1.64127 14.2178 1.6413C14.2174 1.64136 14.2171 1.64143 14.2167 1.6415C14.2159 1.64165 14.2149 1.64184 14.2138 1.64205C14.2115 1.64249 14.2086 1.64305 14.2051 1.64373C14.198 1.64511 14.1885 1.64699 14.1767 1.64935C14.1533 1.65407 14.1208 1.66078 14.0818 1.66928C14.0048 1.68606 13.8976 1.71086 13.7818 1.74228C13.6695 1.77272 13.5302 1.81443 13.3959 1.86747C13.3015 1.90471 13.058 2.00276 12.8613 2.1982L13.5662 2.90756L14.271 3.61692C14.1967 3.69074 14.1338 3.72432 14.1272 3.72792C14.113 3.73571 14.1118 3.73504 14.1302 3.72778C14.1675 3.71305 14.2278 3.69356 14.3053 3.67253C14.3793 3.65247 14.4521 3.63552 14.5076 3.62341C14.5349 3.61747 14.5569 3.61295 14.5712 3.61005C14.5784 3.60861 14.5836 3.60759 14.5866 3.60701C14.5881 3.60672 14.589 3.60654 14.5894 3.60648C14.5895 3.60644 14.5895 3.60644 14.5894 3.60647C14.5893 3.60648 14.5892 3.6065 14.5891 3.60653C14.589 3.60655 14.5889 3.60656 14.5888 3.60658C14.5888 3.60659 14.5887 3.6066 14.5887 3.60661C14.5886 3.60662 14.5885 3.60664 14.4035 2.62389ZM13.5662 2.90756L12.8613 2.1982C12.6872 2.37118 12.6067 2.57134 12.5802 2.6378C12.5405 2.73724 12.5107 2.83844 12.4883 2.92346C12.4431 3.09586 12.4065 3.28831 12.3786 3.45339C12.3501 3.62276 12.3273 3.78426 12.3118 3.90201C12.304 3.96134 12.2979 4.0106 12.2937 4.04551C12.2916 4.06298 12.29 4.07691 12.2888 4.08677C12.2883 4.0917 12.2878 4.09562 12.2875 4.09846C12.2873 4.09988 12.2872 4.10103 12.2871 4.1019C12.2871 4.10234 12.287 4.1027 12.287 4.103C12.287 4.10315 12.2869 4.10328 12.2869 4.10339C12.2869 4.10345 12.2869 4.10352 12.2869 4.10355C12.2869 4.10361 12.2869 4.10368 13.2807 4.21494C14.2745 4.3262 14.2745 4.32626 14.2745 4.32631C14.2745 4.32632 14.2745 4.32636 14.2745 4.32638C14.2745 4.32643 14.2745 4.32645 14.2745 4.32646C14.2745 4.32648 14.2745 4.32643 14.2745 4.32631C14.2745 4.32607 14.2746 4.32557 14.2746 4.3248C14.2748 4.32327 14.2751 4.3207 14.2755 4.31716C14.2763 4.31007 14.2776 4.29911 14.2794 4.28478C14.2828 4.25608 14.288 4.21415 14.2947 4.16305C14.3083 4.05997 14.3276 3.92378 14.3508 3.78575C14.3748 3.64342 14.3998 3.51875 14.4227 3.43144C14.4345 3.3866 14.4404 3.3723 14.4378 3.37898C14.4362 3.38282 14.4273 3.40511 14.4089 3.43779C14.3937 3.46499 14.3509 3.53757 14.271 3.61692L13.5662 2.90756ZM13.2807 4.21494C14.2752 4.11009 14.2752 4.11003 14.2752 4.10996C14.2752 4.10993 14.2752 4.10986 14.2752 4.1098C14.2751 4.10969 14.2751 4.10956 14.2751 4.10941C14.2751 4.10911 14.275 4.10873 14.275 4.10829C14.2749 4.10741 14.2748 4.10624 14.2746 4.1048C14.2743 4.10192 14.2739 4.09795 14.2733 4.09296C14.2722 4.08296 14.2707 4.06885 14.2687 4.05115C14.2646 4.01579 14.2587 3.96589 14.2512 3.9058C14.2363 3.78654 14.2142 3.62295 14.1862 3.45136C14.159 3.28417 14.1229 3.08909 14.0777 2.91426C14.0555 2.82805 14.0255 2.72529 13.9854 2.62428C13.9584 2.55637 13.877 2.35349 13.6997 2.17892L12.998 2.89141L12.2964 3.60389C12.2153 3.52404 12.1718 3.45066 12.1561 3.42278C12.1374 3.38947 12.1283 3.36668 12.1267 3.36259C12.1238 3.35546 12.1297 3.36962 12.1414 3.41486C12.1642 3.50294 12.1888 3.62892 12.2123 3.77294C12.235 3.91258 12.2537 4.05039 12.2668 4.15471C12.2732 4.20642 12.2782 4.24886 12.2815 4.27789C12.2832 4.29239 12.2844 4.30348 12.2852 4.31065C12.2856 4.31424 12.2859 4.31683 12.2861 4.31838C12.2861 4.31915 12.2862 4.31966 12.2862 4.3199C12.2862 4.32002 12.2862 4.32007 12.2862 4.32005C12.2862 4.32004 12.2862 4.32001 12.2862 4.31997C12.2862 4.31995 12.2862 4.3199 12.2862 4.31989C12.2862 4.31984 12.2862 4.31979 13.2807 4.21494ZM12.998 2.89141L13.6997 2.17892C13.4979 1.98013 13.2493 1.88409 13.1517 1.84735C13.0144 1.79567 12.8728 1.75637 12.7594 1.72819C12.6423 1.69908 12.5341 1.67669 12.4565 1.66171C12.4172 1.65411 12.3844 1.64818 12.3607 1.64401C12.3489 1.64193 12.3392 1.64027 12.332 1.63906C12.3284 1.63846 12.3254 1.63797 12.3231 1.63758C12.322 1.63739 12.321 1.63723 12.3202 1.63709C12.3197 1.63703 12.3194 1.63697 12.319 1.63691C12.3189 1.63689 12.3187 1.63686 12.3186 1.63684C12.3185 1.63683 12.3184 1.63681 12.3184 1.6368C12.3183 1.63679 12.3182 1.63677 12.1582 2.62389C11.9982 3.61101 11.9981 3.611 11.998 3.61098C11.998 3.61098 11.9979 3.61097 11.9979 3.61096C11.9978 3.61094 11.9977 3.61093 11.9976 3.61091C11.9974 3.61089 11.9973 3.61087 11.9972 3.61085C11.9971 3.61082 11.997 3.61082 11.9972 3.61084C11.9975 3.61089 11.9983 3.61103 11.9998 3.61127C12.0026 3.61176 12.0077 3.61262 12.0147 3.61386C12.0289 3.61634 12.0505 3.62024 12.0774 3.62544C12.1323 3.63604 12.2042 3.65104 12.277 3.66915C12.3536 3.68819 12.412 3.70593 12.4472 3.71916C12.4644 3.72565 12.4616 3.7257 12.4456 3.71715C12.4368 3.71248 12.3722 3.67857 12.2964 3.60389L12.998 2.89141ZM12.1582 2.62389C12.3264 3.60965 12.3265 3.60963 12.3266 3.60962C12.3266 3.60961 12.3267 3.60959 12.3268 3.60958C12.3269 3.60956 12.3271 3.60953 12.3272 3.60951C12.3275 3.60945 12.3279 3.60939 12.3283 3.60932C12.3291 3.60918 12.3301 3.60901 12.3313 3.60881C12.3336 3.60841 12.3365 3.60789 12.3401 3.60726C12.3473 3.60599 12.357 3.60425 12.3689 3.60206C12.3927 3.59768 12.4257 3.59145 12.4652 3.5835C12.5433 3.56782 12.6521 3.54451 12.7697 3.51454C12.8835 3.48552 13.0252 3.44537 13.1621 3.39335C13.258 3.3569 13.5073 3.26017 13.7086 3.06143L13.0062 2.34971L12.3037 1.63799C12.3801 1.56263 12.4451 1.52864 12.4526 1.52464C12.4678 1.5165 12.4697 1.51693 12.4514 1.52386C12.4144 1.53792 12.354 1.55654 12.2757 1.57649C12.2011 1.5955 12.1276 1.61137 12.0715 1.62263C12.044 1.62816 12.0219 1.63234 12.0073 1.63501C12.0001 1.63634 11.9949 1.63728 11.9919 1.63781C11.9904 1.63808 11.9894 1.63824 11.9891 1.63829C11.989 1.63832 11.9889 1.63832 11.9891 1.6383C11.9892 1.63828 11.9893 1.63826 11.9894 1.63824C11.9895 1.63822 11.9896 1.63821 11.9897 1.63819C11.9897 1.63818 11.9898 1.63817 11.9899 1.63817C11.9899 1.63815 11.99 1.63814 12.1582 2.62389ZM13.0062 2.34971L13.7086 3.06143C13.8841 2.88823 13.9651 2.688 13.9926 2.61908C14.0327 2.51841 14.0623 2.41637 14.0843 2.33114C14.1289 2.15837 14.164 1.96636 14.1903 1.8025C14.2173 1.63423 14.2384 1.47398 14.2527 1.35726C14.2599 1.29843 14.2655 1.24957 14.2693 1.21493C14.2712 1.19759 14.2727 1.18374 14.2738 1.17393C14.2743 1.16902 14.2747 1.16512 14.275 1.16228C14.2751 1.16086 14.2753 1.15971 14.2754 1.15883C14.2754 1.15839 14.2754 1.15802 14.2755 1.15772C14.2755 1.15757 14.2755 1.15743 14.2755 1.15732C14.2755 1.15726 14.2755 1.15719 14.2755 1.15716C14.2755 1.15709 14.2755 1.15702 13.2807 1.05566C12.2858 0.954305 12.2858 0.954249 12.2859 0.954198C12.2859 0.954186 12.2859 0.954138 12.2859 0.954115C12.2859 0.954069 12.2859 0.954039 12.2859 0.954027C12.2859 0.954001 12.2859 0.954043 12.2859 0.954151C12.2858 0.954368 12.2858 0.954848 12.2857 0.955586C12.2856 0.957061 12.2853 0.959561 12.2849 0.963022C12.2842 0.969947 12.283 0.980697 12.2815 0.994762C12.2784 1.02294 12.2737 1.06417 12.2675 1.11442C12.2551 1.21586 12.2373 1.34977 12.2156 1.48543C12.1931 1.62552 12.1695 1.74723 12.1477 1.83178C12.1365 1.8752 12.1311 1.88771 12.1345 1.87922C12.1364 1.8744 12.1457 1.85117 12.1647 1.81759C12.1808 1.78911 12.2239 1.71677 12.3037 1.63799L13.0062 2.34971Z" fill="white" mask="url(#path-3-inside-1_0_71)"/>
</svg>
